<svg width="24" height="24" viewBox="0 0 24 24" fill="none" xmlns="http://www.w3.org/2000/svg">
<path fill-rule="evenodd" clip-rule="evenodd" d="M3.08356 9.2569C3.09629 8.6699 3.14524 7.5049 3.23728 7.1299C3.70726 5.0209 5.30323 3.6809 7.58458 3.4899H16.4163C18.678 3.6909 20.2936 5.0399 20.7636 7.1299C20.8546 7.4949 20.9036 8.6689 20.9163 9.2569H3.08356Z" fill="#EA4335"/>
<path fill-rule="evenodd" clip-rule="evenodd" d="M8.33779 6.59C8.76861 6.59 9.09172 6.261 9.09172 5.82V2.771C9.09172 2.33 8.76861 2 8.33779 2C7.90698 2 7.58387 2.33 7.58387 2.771V5.82C7.58387 6.261 7.90698 6.59 8.33779 6.59ZM3.0802 16.87V9.257H20.9198V16.931C20.9198 20.07 18.9616 22 15.8284 22H8.16184C5.05803 22 3.0802 20.03 3.0802 16.87ZM7.99539 14.41C7.545 14.431 7.17293 14.07 7.15335 13.611C7.15335 13.151 7.50583 12.771 7.95623 12.75C8.39683 12.75 8.75911 13.101 8.7689 13.55C8.78848 14.011 8.436 14.391 7.99539 14.41ZM12.0196 14.41C11.5692 14.431 11.1971 14.07 11.1775 13.611C11.1775 13.151 11.53 12.771 11.9804 12.75C12.421 12.75 12.7833 13.101 12.7931 13.55C12.8127 14.011 12.4602 14.391 12.0196 14.41ZM16.0144 18.09C15.564 18.08 15.2017 17.7 15.2017 17.24C15.1919 16.78 15.5542 16.401 16.0046 16.391H16.0144C16.4746 16.391 16.8467 16.771 16.8467 17.24C16.8467 17.71 16.4746 18.09 16.0144 18.09ZM11.1775 17.24C11.1971 17.7 11.5692 18.061 12.0196 18.04C12.4602 18.021 12.8127 17.641 12.7931 17.181C12.7833 16.731 12.421 16.38 11.9804 16.38C11.53 16.401 11.1775 16.78 11.1775 17.24ZM7.14356 17.24C7.16314 17.7 7.53521 18.061 7.9856 18.04C8.42621 18.021 8.77869 17.641 8.75911 17.181C8.74932 16.731 8.38704 16.38 7.94644 16.38C7.49604 16.401 7.14356 16.78 7.14356 17.24ZM15.2115 13.601C15.2115 13.141 15.564 12.771 16.0144 12.761C16.455 12.761 16.8075 13.12 16.8271 13.561C16.8369 14.021 16.4844 14.401 16.0438 14.41C15.5934 14.42 15.2213 14.07 15.2115 13.611V13.601ZM16.4159 5.82C16.4159 6.261 16.083 6.59 15.662 6.59C15.2312 6.59 14.9081 6.261 14.9081 5.82V2.771C14.9081 2.33 15.2312 2 15.662 2C16.083 2 16.4159 2.33 16.4159 2.771V5.82Z" fill="#CDCDD0"/>
</svg>
