<svg width="18" height="12" viewBox="0 0 18 12" fill="none" xmlns="http://www.w3.org/2000/svg">
<path d="M1.32761 7.82362C2.10396 4.09555 5.34937 1.44663 9.00003 1.44663C12.6496 1.44663 15.895 4.09555 16.6725 7.82362C16.7033 7.97156 16.7916 8.1012 16.9179 8.18403C17.0443 8.26686 17.1984 8.29609 17.3464 8.2653C17.4943 8.2345 17.6239 8.14621 17.7068 8.01982C17.7896 7.89344 17.8188 7.73934 17.788 7.5914C16.9035 3.35108 13.2039 0.308289 9.00003 0.308289C4.79614 0.308289 1.09652 3.35108 0.212032 7.5914C0.181238 7.73934 0.210471 7.89344 0.293302 8.01982C0.376132 8.14621 0.505775 8.2345 0.653709 8.2653C0.801643 8.29609 0.955752 8.26686 1.08213 8.18403C1.20851 8.1012 1.29681 7.97156 1.32761 7.82362ZM8.98865 3.72331C10.0453 3.72331 11.0587 4.14308 11.8059 4.89026C12.5531 5.63744 12.9728 6.65084 12.9728 7.70751C12.9728 8.76419 12.5531 9.77758 11.8059 10.5248C11.0587 11.2719 10.0453 11.6917 8.98865 11.6917C7.93197 11.6917 6.91858 11.2719 6.1714 10.5248C5.42421 9.77758 5.00445 8.76419 5.00445 7.70751C5.00445 6.65084 5.42421 5.63744 6.1714 4.89026C6.91858 4.14308 7.93197 3.72331 8.98865 3.72331Z" fill="#6A707C"/>
</svg>
